<?xml version="1.0" standalone="no"?>
<!DOCTYPE svg PUBLIC "-//W3C//DTD SVG 20010904//EN"
 "http://www.w3.org/TR/2001/REC-SVG-20010904/DTD/svg10.dtd">
<svg version="1.0" xmlns="http://www.w3.org/2000/svg"
 width="46.000000pt" height="46.000000pt" viewBox="0 0 46.000000 46.000000"
 preserveAspectRatio="xMidYMid meet">

<g transform="translate(0.000000,46.000000) scale(0.100000,-0.100000)"
fill="#000000" stroke="none">
<path d="M65 417 c-3 -7 -4 -96 -3 -197 l3 -185 165 0 165 0 0 195 0 195 -163
3 c-126 2 -164 0 -167 -11z m225 -22 c22 -14 43 -25 47 -24 32 5 34 -1 31
-158 l-3 -158 -135 0 -135 0 -3 158 c-3 163 -3 162 39 158 9 -1 22 5 29 14 7
8 19 15 26 15 8 0 14 5 14 10 0 19 50 10 90 -15z"/>
<path d="M228 403 c7 -3 16 -2 19 1 4 3 -2 6 -13 5 -11 0 -14 -3 -6 -6z"/>
<path d="M120 290 c0 -18 7 -20 79 -20 74 0 79 1 74 20 -5 18 -14 20 -79 20
-67 0 -74 -2 -74 -20z"/>
<path d="M300 290 c0 -11 4 -20 10 -20 5 0 7 7 4 15 -4 10 0 15 11 15 11 0 15
-5 11 -15 -3 -8 -1 -15 4 -15 6 0 10 9 10 20 0 15 -7 20 -25 20 -18 0 -25 -5
-25 -20z"/>
<path d="M120 230 c0 -18 7 -20 75 -20 68 0 75 2 75 20 0 18 -7 20 -75 20 -68
0 -75 -2 -75 -20z"/>
<path d="M300 224 c0 -21 4 -25 23 -22 14 2 23 11 25 26 3 18 -1 22 -22 22
-21 0 -26 -5 -26 -26z"/>
<path d="M120 165 c0 -24 2 -25 75 -25 73 0 75 1 75 25 0 24 -2 25 -75 25 -73
0 -75 -1 -75 -25z"/>
<path d="M300 165 c0 -20 5 -25 25 -25 20 0 25 5 25 25 0 20 -5 25 -25 25 -20
0 -25 -5 -25 -25z"/>
<path d="M120 105 c0 -24 2 -25 75 -25 73 0 75 1 75 25 0 24 -2 25 -75 25 -73
0 -75 -1 -75 -25z"/>
<path d="M300 105 c0 -20 5 -25 25 -25 20 0 25 5 25 25 0 20 -5 25 -25 25 -20
0 -25 -5 -25 -25z"/>
</g>
</svg>
