<?xml version="1.0" standalone="no"?>
<!DOCTYPE svg PUBLIC "-//W3C//DTD SVG 20010904//EN"
 "http://www.w3.org/TR/2001/REC-SVG-20010904/DTD/svg10.dtd">
<svg version="1.0" xmlns="http://www.w3.org/2000/svg"
 width="46.000000pt" height="46.000000pt" viewBox="0 0 46.000000 46.000000"
 preserveAspectRatio="xMidYMid meet">

<g transform="translate(0.000000,46.000000) scale(0.100000,-0.100000)"
fill="#000000" stroke="none">
<path d="M165 409 c-16 -6 -47 -28 -68 -47 -120 -116 -37 -322 130 -322 81 0
139 34 174 102 41 81 12 196 -63 245 -44 30 -124 40 -173 22z m142 -36 c70
-33 108 -129 78 -199 -22 -52 -42 -73 -94 -96 -104 -47 -221 32 -221 149 0
121 126 199 237 146z"/>
<path d="M200 327 c-26 -13 -40 -47 -19 -47 7 0 21 8 31 17 15 13 23 15 36 7
27 -17 26 -42 -2 -75 -14 -17 -26 -37 -26 -45 0 -25 24 -14 53 23 29 39 36 93
14 111 -22 18 -61 23 -87 9z"/>
<path d="M215 130 c-8 -14 3 -30 21 -30 8 0 14 9 14 20 0 21 -24 28 -35 10z"/>
</g>
</svg>
