<?xml version="1.0" standalone="no"?>
<!DOCTYPE svg PUBLIC "-//W3C//DTD SVG 20010904//EN"
 "http://www.w3.org/TR/2001/REC-SVG-20010904/DTD/svg10.dtd">
<svg version="1.0" xmlns="http://www.w3.org/2000/svg"
 width="46.000000pt" height="46.000000pt" viewBox="0 0 46.000000 46.000000"
 preserveAspectRatio="xMidYMid meet">

<g transform="translate(0.000000,46.000000) scale(0.100000,-0.100000)"
fill="#000000" stroke="none">
<path d="M107 319 c-97 -81 -107 -93 -94 -106 14 -14 26 -7 112 66 53 44 100
81 105 81 5 0 52 -36 105 -81 80 -67 98 -79 111 -68 13 11 10 17 -21 49 -32
33 -35 41 -35 93 l0 57 -35 0 c-32 0 -35 -2 -35 -31 l0 -31 -39 31 c-21 17
-45 31 -52 31 -8 0 -63 -41 -122 -91z"/>
<path d="M146 268 l-76 -61 0 -79 0 -78 60 0 60 0 0 55 0 55 40 0 40 0 0 -55
0 -55 60 0 60 0 0 78 0 79 -76 61 c-42 34 -80 62 -84 62 -4 0 -42 -28 -84 -62z"/>
</g>
</svg>
