<?xml version="1.0" standalone="no"?>
<!DOCTYPE svg PUBLIC "-//W3C//DTD SVG 20010904//EN"
 "http://www.w3.org/TR/2001/REC-SVG-20010904/DTD/svg10.dtd">
<svg version="1.0" xmlns="http://www.w3.org/2000/svg"
 width="46.000000pt" height="46.000000pt" viewBox="0 0 46.000000 46.000000"
 preserveAspectRatio="xMidYMid meet">

<g transform="translate(0.000000,46.000000) scale(0.100000,-0.100000)"
fill="#000000" stroke="none">
<path d="M165 417 c-56 -22 -74 -37 -102 -85 -40 -68 -39 -144 2 -204 58 -83
168 -112 249 -65 92 52 128 147 92 242 -37 96 -149 148 -241 112z m145 -27
c57 -29 84 -72 88 -146 4 -63 -10 -106 -42 -134 -14 -11 -19 -9 -36 13 -45 56
-134 56 -188 -2 -23 -25 -24 -26 -39 -6 -25 33 -43 82 -43 119 0 131 142 216
260 156z"/>
<path d="M194 318 c-69 -33 -37 -138 42 -138 24 0 64 47 64 75 0 30 -41 75
-67 74 -10 0 -28 -5 -39 -11z"/>
</g>
</svg>
