<?xml version="1.0" standalone="no"?>
<!DOCTYPE svg PUBLIC "-//W3C//DTD SVG 20010904//EN"
 "http://www.w3.org/TR/2001/REC-SVG-20010904/DTD/svg10.dtd">
<svg version="1.0" xmlns="http://www.w3.org/2000/svg"
 width="46.000000pt" height="46.000000pt" viewBox="0 0 46.000000 46.000000"
 preserveAspectRatio="xMidYMid meet">

<g transform="translate(0.000000,46.000000) scale(0.100000,-0.100000)"
fill="#000000" stroke="none">
<path d="M168 428 c-21 -5 -49 -23 -63 -40 -22 -26 -25 -39 -25 -103 0 -52 -4
-76 -15 -85 -9 -8 -15 -30 -15 -59 0 -36 7 -54 30 -81 l29 -35 120 0 120 0 30
35 c24 28 30 45 31 81 0 30 -5 51 -15 59 -11 9 -15 33 -15 85 0 64 -3 77 -25
103 -15 18 -41 34 -69 41 -52 13 -67 13 -118 -1z m12 -64 c0 -68 -23 -71 -28
-4 -3 37 7 59 26 60 1 0 2 -25 2 -56z m80 -28 c0 -87 12 -115 45 -102 12 4 15
23 15 88 l0 82 23 -22 c21 -21 22 -31 22 -165 l0 -142 -135 0 -135 0 0 142 c0
134 1 144 23 165 l22 22 0 -82 c0 -87 12 -109 46 -81 12 10 15 30 12 96 l-3
83 33 0 32 0 0 -84z m48 26 c-5 -69 -28 -67 -28 2 0 46 3 54 15 49 12 -4 15
-17 13 -51z m-128 -82 c0 -13 -5 -18 -15 -14 -8 4 -15 12 -15 20 0 8 7 14 15
14 8 0 15 -9 15 -20z m130 6 c0 -8 -7 -16 -15 -20 -10 -4 -15 1 -15 14 0 11 7
20 15 20 8 0 15 -6 15 -14z m-230 -147 c0 -31 -4 -48 -10 -44 -17 11 -12 95 7
95 2 0 3 -23 3 -51z m320 1 c0 -21 -4 -42 -10 -45 -6 -4 -10 13 -10 45 0 32 4
49 10 45 6 -3 10 -24 10 -45z"/>
<path d="M156 194 c-8 -20 -8 -68 0 -88 8 -20 123 -23 142 -4 13 13 16 66 6
92 -9 23 -139 23 -148 0z m132 -13 c1 -1 -2 -10 -8 -21 -14 -26 -94 -29 -104
-4 -3 9 -4 19 -2 22 3 5 93 7 114 3z"/>
</g>
</svg>
