<?xml version="1.0" standalone="no"?>
<!DOCTYPE svg PUBLIC "-//W3C//DTD SVG 20010904//EN"
 "http://www.w3.org/TR/2001/REC-SVG-20010904/DTD/svg10.dtd">
<svg version="1.0" xmlns="http://www.w3.org/2000/svg"
 width="46.000000pt" height="46.000000pt" viewBox="0 0 46.000000 46.000000"
 preserveAspectRatio="xMidYMid meet">

<g transform="translate(0.000000,46.000000) scale(0.100000,-0.100000)"
fill="#000000" stroke="none">
<path d="M153 421 c3 -13 -5 -26 -24 -40 -24 -18 -29 -29 -29 -64 0 -23 9 -59
20 -80 26 -47 26 -47 -10 -47 -28 0 -30 -3 -30 -35 0 -24 -5 -35 -15 -35 -20
0 -20 -39 0 -46 8 -4 15 -15 15 -25 0 -12 7 -19 20 -19 13 0 20 7 20 20 0 11
5 20 10 20 6 0 10 -9 10 -20 0 -19 7 -20 120 -20 113 0 120 1 120 20 0 11 5
20 10 20 6 0 10 11 10 25 0 14 -4 25 -10 25 -5 0 -11 17 -11 38 l-2 37 -7 -40
c-5 -31 -8 -36 -14 -22 -5 9 -6 26 -3 37 3 11 1 20 -3 20 -5 0 -11 -17 -13
-37 l-4 -38 -1 38 c-1 20 -6 37 -12 37 -5 0 2 21 15 46 46 86 23 158 -49 158
-24 0 -36 5 -36 14 0 8 -6 12 -13 9 -7 -3 -21 1 -32 9 -29 21 -58 18 -52 -5z
m57 -56 c12 -14 15 -14 30 0 28 25 82 16 97 -16 15 -30 2 -88 -29 -131 -18
-25 -25 -28 -81 -28 -60 0 -63 1 -86 37 -32 50 -39 108 -16 133 21 24 67 26
85 5z m-80 -209 c0 -8 -5 -18 -11 -22 -14 -8 -33 11 -25 25 10 16 36 13 36 -3z
m260 -61 c0 -13 -24 -15 -160 -15 -136 0 -160 2 -160 15 0 13 24 15 160 15
136 0 160 -2 160 -15z m-25 -45 c-3 -5 -44 -10 -91 -10 -49 0 -84 4 -84 10 0
6 37 10 91 10 57 0 88 -4 84 -10z"/>
<path d="M187 283 c-11 -10 -8 -20 8 -27 10 -4 15 1 15 14 0 20 -11 26 -23 13z"/>
<path d="M247 283 c-4 -3 -7 -12 -7 -20 0 -11 4 -11 20 -3 11 6 18 15 15 21
-7 11 -19 12 -28 2z"/>
</g>
</svg>
